<?xml version="1.0" encoding="UTF-8" standalone="no"?>
<svg
   version="1.1"
   id="svg8"
   sodipodi:docname="netx.svg"
   width="256"
   height="128"
   inkscape:version="1.4.3 (0d15f75042, 2025-12-25)"
   xmlns:inkscape="http://www.inkscape.org/namespaces/inkscape"
   xmlns:sodipodi="http://sodipodi.sourceforge.net/DTD/sodipodi-0.dtd"
   xmlns="http://www.w3.org/2000/svg"
   xmlns:svg="http://www.w3.org/2000/svg">
  <defs
     id="defs8" />
  <sodipodi:namedview
     id="namedview8"
     pagecolor="#ffffff"
     bordercolor="#000000"
     borderopacity="0.25"
     inkscape:showpageshadow="2"
     inkscape:pageopacity="0.0"
     inkscape:pagecheckerboard="0"
     inkscape:deskcolor="#d1d1d1"
     showgrid="false"
     inkscape:zoom="3.11"
     inkscape:cx="100"
     inkscape:cy="45.498392"
     inkscape:window-width="2560"
     inkscape:window-height="1363"
     inkscape:window-x="0"
     inkscape:window-y="0"
     inkscape:window-maximized="1"
     inkscape:current-layer="svg8" />
  <g
     id="g1">
    <text
       x="17.449543"
       y="91.65229"
       fill="#0f172a"
       style="font-style:normal;font-variant:normal;font-weight:700;font-stretch:normal;font-size:85.4821px;line-height:normal;font-family:Roboto;fill:#000000;fill-opacity:1;stroke:#ffffff;stroke-width:5;stroke-dasharray:none;stroke-opacity:1;paint-order:stroke fill markers"
       id="text8">net</text>
    <path
       id="path39"
       style="fill:#00add8;fill-opacity:1;stroke:#ffffff;stroke-width:5;stroke-dasharray:none;stroke-opacity:1;paint-order:stroke fill markers"
       d="m 212.89591,44.720726 1.99587,2.922518 -8.86735,6.044622 -2.01012,-2.936774 z m 5.56261,39.190184 -2.01612,2.883064 -12.7621,-9.193548 2.03629,-2.903226 z m -57.19851,9.594481 2.72293,2.252478 11.39069,-13.885525 -2.7657,-2.238221 z m -6.30123,-59.220193 2.48057,-2.480576 15.96693,15.88139 -2.50909,2.480577 z M 233.5,90.713153 a 8.9043846,8.9043846 0 0 1 -8.90439,8.904387 8.9043846,8.9043846 0 0 1 -8.90438,-8.904387 8.9043846,8.9043846 0 0 1 8.90438,-8.904385 8.9043846,8.9043846 0 0 1 8.90439,8.904385 z m -67.67332,10.685267 a 8.9043846,8.9043846 0 0 1 -8.90439,8.90438 8.9043846,8.9043846 0 0 1 -8.90438,-8.90438 8.9043846,8.9043846 0 0 1 8.90438,-8.904387 8.9043846,8.9043846 0 0 1 8.90439,8.904387 z m -7.12351,-74.796835 a 8.9043846,8.9043846 0 0 1 -8.90439,8.904384 8.9043846,8.9043846 0 0 1 -8.90438,-8.904384 8.9043846,8.9043846 0 0 1 8.90438,-8.904385 8.9043846,8.9043846 0 0 1 8.90439,8.904385 z M 229.93824,40.8486 a 8.9043846,8.9043846 0 0 1 -8.90438,8.904384 8.9043846,8.9043846 0 0 1 -8.90439,-8.904384 8.9043846,8.9043846 0 0 1 8.90439,-8.904385 8.9043846,8.9043846 0 0 1 8.90438,8.904385 z m -21.37052,23.151399 a 21.370523,21.370523 0 0 1 -21.37053,21.370524 21.370523,21.370523 0 0 1 -21.37052,-21.370524 21.370523,21.370523 0 0 1 21.37052,-21.370523 21.370523,21.370523 0 0 1 21.37053,21.370523 z" />
  </g>
</svg>
